<svg width="22" height="22" viewBox="0 0 22 22" fill="none" xmlns="http://www.w3.org/2000/svg">
<path d="M0.0339355 14.4844C0.0339355 17.6973 2.83667 20.8711 5.68823 20.8711C8.20776 20.8711 9.49683 18.6934 10.7468 14.8164C10.8347 14.8164 10.9226 14.8066 11.0105 14.8066C11.157 14.7969 11.3035 14.7773 11.4402 14.7578V18.7227C11.4402 20.5977 12.4167 21.6133 14.2332 21.6133C17.446 21.6133 20.6296 18.8105 20.6296 15.9492C20.6296 13.4297 18.4324 12.1406 14.5554 10.8906C14.5554 10.8027 14.5554 10.7246 14.5457 10.6367C14.5359 10.4902 14.5261 10.3535 14.4871 10.207H18.4714C20.3367 10.207 21.3523 9.23047 21.3523 7.41406C21.3523 4.20117 18.5496 1.01758 15.698 1.01758C13.1785 1.01758 11.8796 3.20508 10.6296 7.0918C10.5417 7.08203 10.4636 7.0918 10.3757 7.0918C10.2292 7.10156 10.0828 7.12109 9.94604 7.15039V3.17578C9.94604 1.30078 8.96948 0.285156 7.15308 0.285156C3.94019 0.285156 0.756592 3.08789 0.756592 5.93945C0.756592 8.45898 2.95386 9.75781 6.82104 11.0078C6.83081 11.0957 6.83081 11.1934 6.84058 11.2812C6.84058 11.418 6.86011 11.5547 6.8894 11.6914H2.91479C1.04956 11.6914 0.0339355 12.668 0.0339355 14.4844ZM8.60815 10.9492C8.60815 9.79688 9.53589 8.85938 10.6882 8.85938C11.8406 8.85938 12.7781 9.80664 12.7781 10.9492C12.7781 12.1016 11.8406 13.0293 10.6882 13.0293C9.53589 13.0293 8.60815 12.0918 8.60815 10.9492ZM9.43823 10.9492C9.43823 11.6426 9.99487 12.1895 10.6882 12.1895C11.3718 12.1895 11.9285 11.6426 11.9285 10.9492C11.9285 10.2559 11.3718 9.69922 10.6882 9.69922C9.99487 9.69922 9.43823 10.2559 9.43823 10.9492Z" fill="black"/>
</svg>
