<svg width="15" height="21" viewBox="0 0 15 21" fill="none" xmlns="http://www.w3.org/2000/svg">
<path d="M2.72461 20.4512H12.2852C13.6328 20.4512 14.2871 19.7773 14.2871 18.3223V10.9297C14.2871 9.62109 13.7402 8.9375 12.6367 8.83008V6.45703C12.6367 2.7168 10.1172 0.919922 7.5 0.919922C4.88281 0.919922 2.37305 2.7168 2.37305 6.45703V8.85938C1.31836 9.00586 0.712891 9.67969 0.712891 10.9297V18.3223C0.712891 19.7773 1.37695 20.4512 2.72461 20.4512ZM4.43359 6.28125C4.43359 4.11328 5.81055 2.90234 7.5 2.90234C9.18945 2.90234 10.5664 4.11328 10.5664 6.28125V8.81055L4.43359 8.82031V6.28125Z" fill="black"/>
</svg>
